<svg xmlns="http://www.w3.org/2000/svg" width="20.713" height="20.69" viewBox="0 0 20.713 20.69">
  <g id="noun_Key_1000309" transform="matrix(0.695, 0.719, -0.719, 0.695, 9.829, -26.792)">
    <path id="Path_58" data-name="Path 58" d="M20.273,30.813,22.158,32.7a.943.943,0,0,0,1.334-1.334l-1.218-1.218L23.3,29.123l1.218,1.218a.943.943,0,1,0,1.334-1.334L24.63,27.79,26.3,26.122a4.727,4.727,0,1,0-1.14-1.527l-4.885,4.885a.943.943,0,0,0,0,1.334Zm9.149-11.034A2.828,2.828,0,1,1,26.6,22.606,2.828,2.828,0,0,1,29.423,19.779Z" fill="#02111b"/>
  </g>
</svg>
