<svg xmlns="http://www.w3.org/2000/svg" width="21.233" height="22.509" viewBox="0 0 21.233 22.509">
  <path id="Icon_ionic-md-link" data-name="Icon ionic-md-link" d="M4.218,15.3a3.208,3.208,0,0,1,3.206-3.206h4.066V10.125H7.425a5.175,5.175,0,0,0,0,10.349h4.066V18.506H7.425A3.208,3.208,0,0,1,4.218,15.3Zm3.946,1.016h8.871V14.283H8.164Zm9.61-6.191H13.708v1.968h4.066a3.206,3.206,0,1,1,0,6.413H13.708v1.968h4.066a5.175,5.175,0,0,0,0-10.349Z" transform="translate(-9.203 11.072) rotate(-50)" fill="#02111b"/>
</svg>
