<svg xmlns="http://www.w3.org/2000/svg" width="21.16" height="21.16" viewBox="0 0 21.16 21.16">
  <path id="Icon_metro-help" data-name="Icon metro-help" d="M13.151,1.928a10.58,10.58,0,1,0,10.58,10.58,10.58,10.58,0,0,0-10.58-10.58ZM9.183,12.508a3.967,3.967,0,1,1,3.967,3.967,3.967,3.967,0,0,1-3.967-3.967ZM21.7,16.051l-3.666-1.519a5.3,5.3,0,0,0,0-4.05L21.7,8.965a9.281,9.281,0,0,1,0,7.087Zm-5.011-12.1L15.175,7.62a5.3,5.3,0,0,0-4.05,0L9.607,3.953a9.282,9.282,0,0,1,7.087,0ZM4.6,8.965l3.666,1.519a5.3,5.3,0,0,0,0,4.05L4.6,16.051a9.281,9.281,0,0,1,0-7.087Zm5.011,12.1L11.126,17.4a5.3,5.3,0,0,0,4.05,0l1.519,3.666a9.281,9.281,0,0,1-7.087,0Z" transform="translate(-2.571 -1.928)" fill="#02111b"/>
</svg>
