<svg xmlns="http://www.w3.org/2000/svg" width="25.467" height="19.682" viewBox="0 0 25.467 19.682">
  <g id="noun_images_3882414" transform="translate(-1 -12.13)">
    <g id="Group_21" data-name="Group 21" transform="translate(1 12.13)">
      <path id="Path_26" data-name="Path 26" d="M4.859,12.13H22.608a3.871,3.871,0,0,1,3.859,3.859V27.953a3.871,3.871,0,0,1-3.859,3.859H4.859A3.871,3.871,0,0,1,1,27.953V15.989A3.871,3.871,0,0,1,4.859,12.13Zm14.334,2.833a1.976,1.976,0,1,1-1.978,1.975A1.974,1.974,0,0,1,19.193,14.963ZM6.465,25.768,11,18.406a1.164,1.164,0,0,1,1.619,0l2.944,4.776,1.167-1.894a.825.825,0,0,1,1.151,0l3.22,5.229a1.4,1.4,0,0,1-1.11,2.2H8.024A1.859,1.859,0,0,1,6.465,25.768Z" transform="translate(-1 -12.13)" fill="#02111b"/>
    </g>
  </g>
</svg>
