<svg xmlns="http://www.w3.org/2000/svg" width="25.333" height="11.583" viewBox="0 0 25.333 11.583">
  <path id="Icon_ionic-md-recording" data-name="Icon ionic-md-recording" d="M22.769,11.25a5.78,5.78,0,0,0-5.8,5.792,5.625,5.625,0,0,0,1.321,3.686H13.533a5.625,5.625,0,0,0,1.321-3.686,5.81,5.81,0,1,0-5.816,5.792H22.763a5.792,5.792,0,1,0,.006-11.583ZM9.038,20.728a3.686,3.686,0,1,1,3.692-3.686A3.668,3.668,0,0,1,9.038,20.728Zm13.731,0a3.686,3.686,0,1,1,3.692-3.686A3.668,3.668,0,0,1,22.769,20.728Z" transform="translate(-3.234 -11.25)" fill="#02111b"/>
</svg>
