<svg xmlns="http://www.w3.org/2000/svg" width="34.894" height="34.894" viewBox="0 0 34.894 34.894">
  <path id="Icon_awesome-street-view" data-name="Icon awesome-street-view" d="M25.073,22.474a4.358,4.358,0,0,1-1.084.93v1.563c4.533.637,7.633,1.912,7.633,3.384,0,2.108-6.346,3.816-14.176,3.816S3.271,30.459,3.271,28.351c0-1.472,3.1-2.747,7.633-3.384V23.4a4.358,4.358,0,0,1-1.084-.93C4.012,23.535,0,25.765,0,28.351c0,3.613,7.812,6.543,17.447,6.543s17.447-2.929,17.447-6.543C34.894,25.765,30.881,23.535,25.073,22.474ZM17.447,8.723a4.362,4.362,0,1,0-4.362-4.362A4.361,4.361,0,0,0,17.447,8.723ZM13.085,21.808v6.543a2.181,2.181,0,0,0,2.181,2.181h4.362a2.181,2.181,0,0,0,2.181-2.181V21.808a2.181,2.181,0,0,0,2.181-2.181V13.085a3.271,3.271,0,0,0-3.271-3.271h-.8a5.854,5.854,0,0,1-4.934,0h-.8A3.271,3.271,0,0,0,10.9,13.085v6.543A2.181,2.181,0,0,0,13.085,21.808Z" fill="#787ff6"/>
</svg>
