<svg xmlns="http://www.w3.org/2000/svg" width="37.784" height="33.619" viewBox="0 0 37.784 33.619">
  <path id="Union_12" data-name="Union 12" d="M24.668-1163.56a4.3,4.3,0,0,1-1.239,2.567,4.3,4.3,0,0,1-3.061,1.276H4.343A4.344,4.344,0,0,1,0-1164.052v-12.92a4.34,4.34,0,0,1,4.335-4.335h5.44l-6.215-7.407L5.092-1190l27.131,32.333-1.532,1.285Zm10.636,1.7a1.522,1.522,0,0,1-.784-.228l-7.3-4.605a.721.721,0,0,1-.337-.607v-6.41a.719.719,0,0,1,.337-.607l7.3-4.605a1.439,1.439,0,0,1,.784-.228h1.755a.721.721,0,0,1,.725.717v15.855a.722.722,0,0,1-.725.717Zm-10.611-6.974-10.468-12.475H20.36a4.34,4.34,0,0,1,4.335,4.335v8.142Z" transform="translate(0 1190)" fill="#ffffff"/>
</svg>
