<svg width="18" height="10" viewBox="0 0 18 10" fill="none" xmlns="http://www.w3.org/2000/svg">
<path opacity="0.5" d="M9.27015 6.98296L15.8701 0.373964C15.9857 0.25777 16.123 0.16556 16.2743 0.102638C16.4256 0.0397163 16.5878 0.00732422 16.7516 0.00732422C16.9155 0.00732422 17.0777 0.0397163 17.229 0.102638C17.3803 0.16556 17.5176 0.25777 17.6331 0.373964C17.8655 0.609546 17.9957 0.927106 17.9957 1.25796C17.9957 1.58882 17.8655 1.90638 17.6331 2.14196L10.1501 9.62996C9.92301 9.85622 9.6174 9.98622 9.29686 9.99293C8.97633 9.99963 8.66555 9.88253 8.42915 9.66596L0.898148 2.14596C0.663697 1.91218 0.53172 1.59483 0.531251 1.26373C0.530782 0.932636 0.66186 0.614915 0.895648 0.380464C1.12944 0.146012 1.44679 0.0140358 1.77788 0.013567C2.10898 0.0130981 2.4267 0.144176 2.66115 0.377964L9.27015 6.98296Z" fill="black"/>
</svg>
