<svg width="22" height="22" viewBox="0 0 22 22" fill="none" xmlns="http://www.w3.org/2000/svg">
<g opacity="0.5">
<path opacity="0.5" d="M2.42616 21.2446H13.3542C13.9883 21.2446 14.5964 20.9927 15.0448 20.5443C15.4932 20.0959 15.7452 19.4878 15.7452 18.8536V14.7536C15.7452 14.1195 15.4932 13.5114 15.0448 13.063C14.5964 12.6146 13.9883 12.3626 13.3542 12.3626H8.91416V7.92265C8.9131 7.28938 8.66086 6.6824 8.21279 6.23489C7.76472 5.78738 7.15742 5.53591 6.52416 5.53564H2.42416C1.79037 5.53617 1.18272 5.78832 0.734756 6.23666C0.286789 6.685 0.035156 7.29286 0.0351563 7.92664V18.8546C0.0354214 19.4886 0.287446 20.0965 0.735817 20.5447C1.18419 20.9929 1.7922 21.2446 2.42616 21.2446ZM13.3542 14.4146C13.4449 14.4146 13.5318 14.4507 13.596 14.5148C13.6601 14.5789 13.6962 14.6659 13.6962 14.7566V18.8566C13.6962 18.9473 13.6601 19.0343 13.596 19.0985C13.5318 19.1626 13.4449 19.1986 13.3542 19.1986H8.91416V14.4146H13.3542ZM2.08416 7.92564C2.08416 7.83494 2.12019 7.74795 2.18433 7.68382C2.24846 7.61968 2.33545 7.58364 2.42616 7.58364H6.52616C6.61686 7.58364 6.70385 7.61968 6.76799 7.68382C6.83212 7.74795 6.86816 7.83494 6.86816 7.92564V12.3656H2.08416V7.92564ZM6.86516 14.4146V19.1956H2.42516C2.33445 19.1956 2.24746 19.1596 2.18332 19.0955C2.11919 19.0313 2.08316 18.9443 2.08316 18.8536V14.4136L6.86516 14.4146Z" fill="black" fill-opacity="0.59"/>
<path opacity="0.5" d="M16.4275 0.754883C15.4819 0.754883 14.5575 1.03528 13.7713 1.56063C12.9851 2.08597 12.3723 2.83266 12.0104 3.70627C11.6486 4.57989 11.5539 5.54119 11.7384 6.46861C11.9228 7.39603 12.3782 8.24793 13.0468 8.91656C13.7154 9.5852 14.5673 10.0405 15.4948 10.225C16.4222 10.4095 17.3835 10.3148 18.2571 9.95295C19.1307 9.59109 19.8774 8.9783 20.4027 8.19206C20.9281 7.40583 21.2085 6.48148 21.2085 5.53588C21.2085 4.26788 20.7048 3.05182 19.8082 2.1552C18.9116 1.25859 17.6955 0.754883 16.4275 0.754883ZM16.4275 8.26788C15.8871 8.26788 15.3589 8.10765 14.9097 7.80746C14.4604 7.50726 14.1102 7.08058 13.9034 6.58137C13.6967 6.08217 13.6426 5.53285 13.748 5.0029C13.8534 4.47294 14.1136 3.98614 14.4957 3.60407C14.8777 3.22199 15.3645 2.96179 15.8945 2.85638C16.4245 2.75096 16.9738 2.80507 17.473 3.01184C17.9722 3.21862 18.3989 3.56879 18.6991 4.01806C18.9993 4.46734 19.1595 4.99554 19.1595 5.53588C19.1595 5.89465 19.0888 6.24991 18.9515 6.58137C18.8142 6.91283 18.613 7.21401 18.3593 7.4677C18.1056 7.72139 17.8044 7.92263 17.473 8.05992C17.1415 8.19722 16.7863 8.26788 16.4275 8.26788Z" fill="black" fill-opacity="0.59"/>
</g>
</svg>
