<svg width="128" height="60" viewBox="0 0 128 60" fill="none" xmlns="http://www.w3.org/2000/svg">
<path d="M119.782 6.35025C115.242 6.35025 111.563 10.0262 111.563 14.5638C111.563 16.7455 112.419 18.72 113.801 20.1888V32.1665C60.0814 16.0857 15.0892 32.1665 15.0892 32.1665V20.0166C16.5302 18.5405 17.4229 16.5182 17.4229 14.2885C17.4229 9.74955 13.7439 6.07275 9.20499 6.07275C4.66932 6.07275 0.989258 9.75091 0.989258 14.2885C0.989258 14.5945 1.00945 14.8974 1.04133 15.196C1.02964 15.3714 0.989258 15.5393 0.989258 15.7136V39.8052C0.989258 40.0241 1.03495 40.2197 1.05196 40.4248C1.04239 40.6139 0.989258 40.7904 0.989258 40.9774C0.989258 45.8498 5.42916 49.7894 10.9053 49.7894H14.0054V59.8521H18.8855L21.2532 49.7894H106.964L109.332 59.8521H114.213V49.7894H117.987C123.461 49.7894 127.903 45.8501 127.903 40.9774C127.903 40.7903 127.854 40.6129 127.839 40.429C127.854 40.2186 127.903 40.022 127.903 39.8041L127.904 15.7497C127.959 15.3597 128 14.9697 128 14.5627C127.999 10.0259 124.316 6.34995 119.781 6.34995L119.782 6.35025Z" fill="white"/>
<path d="M109.063 27.5731C109.481 26.5508 109.721 25.4371 109.721 24.2639V9.62607C109.721 4.80148 105.809 0.887451 100.982 0.887451H28.0121C23.1853 0.887451 19.2734 4.7993 19.2734 9.62607V24.2639C19.2734 25.3457 19.4955 26.3681 19.8537 27.3234C35.5669 24.6358 76.2176 19.1651 109.063 27.5731L109.063 27.5731Z" fill="white"/>
</svg>
