<svg width="66" height="66" viewBox="0 0 66 66" fill="none" xmlns="http://www.w3.org/2000/svg">
<rect width="66" height="66" rx="16" fill="#FFC759"/>
<path d="M48.1581 47.3158H45.6316V24.579C45.6574 24.1998 45.421 23.8524 45.0589 23.737L38.8946 21.1601V47.3157H37.2106V17.842C37.2106 17.6188 37.1219 17.4047 36.9639 17.2467C36.8061 17.0887 36.5917 17 36.3685 17H21.2105C20.7456 17 20.3685 17.3771 20.3685 17.842V47.3156H17.842C17.3771 47.3156 17 47.6928 17 48.158C17 48.6229 17.3771 49 17.842 49H48.158C48.6229 49 49 48.6229 49 48.158C49 47.6927 48.6229 47.3156 48.158 47.3156L48.1581 47.3158ZM41.421 27.1053H43.1051V27.1056C43.3286 27.1056 43.5427 27.1943 43.7007 27.352C43.8588 27.51 43.9475 27.7242 43.9475 27.9477C43.9383 28.4091 43.5665 28.7806 43.1051 28.7897H41.4211C40.9596 28.7806 40.5878 28.4091 40.579 27.9477C40.579 27.4824 40.9558 27.1056 41.4211 27.1056L41.421 27.1053ZM41.421 32.1579H43.1051V32.1582C43.5703 32.1582 43.9474 32.535 43.9474 33.0002C43.9474 33.4654 43.5703 33.8422 43.1051 33.8422H41.421C40.9558 33.8422 40.579 33.4654 40.579 33.0002C40.579 32.535 40.9558 32.1582 41.421 32.1582V32.1579ZM41.421 37.2104H43.1051V37.2107C43.5665 37.2198 43.9384 37.5913 43.9474 38.0527C43.9474 38.2762 43.8587 38.4904 43.7007 38.6484C43.5427 38.8061 43.3286 38.8948 43.1051 38.8948H41.421C40.9558 38.8948 40.579 38.518 40.579 38.0528C40.5878 37.5914 40.9596 37.2198 41.421 37.2107L41.421 37.2104ZM41.421 42.263H43.1051V42.2633C43.5703 42.2633 43.9474 42.6404 43.9474 43.1053C43.9474 43.5705 43.5703 43.9476 43.1051 43.9476H41.421C40.9558 43.9476 40.579 43.5705 40.579 43.1053C40.579 42.6404 40.9558 42.2633 41.421 42.2633V42.263ZM30.4736 22.0525H32.158C32.6229 22.0525 33 22.4296 33 22.8948C33 23.3597 32.6229 23.7368 32.158 23.7368H30.4736C30.0087 23.7368 29.6316 23.3597 29.6316 22.8948C29.6316 22.4296 30.0087 22.0525 30.4736 22.0525ZM30.4736 27.105H32.1577L32.158 27.1053C32.6229 27.1053 33 27.4821 33 27.9473C33 28.4123 32.6229 28.7894 32.158 28.7894H30.4736C30.0087 28.7894 29.6316 28.4123 29.6316 27.9473C29.6316 27.4821 30.0087 27.1053 30.4736 27.1053L30.4736 27.105ZM30.4736 32.1576H32.1577L32.158 32.1579C32.6229 32.1579 33 32.5347 33 32.9999C33 33.4651 32.6229 33.8419 32.158 33.8419H30.4736C30.0087 33.8419 29.6316 33.4651 29.6316 32.9999C29.6316 32.5347 30.0087 32.1579 30.4736 32.1579L30.4736 32.1576ZM30.4736 37.2101H32.1577L32.158 37.2104C32.6229 37.2104 33 37.5875 33 38.0524C33 38.5177 32.6229 38.8945 32.158 38.8945H30.4736C30.0087 38.8945 29.6316 38.5176 29.6316 38.0524C29.6316 37.5875 30.0087 37.2104 30.4736 37.2104L30.4736 37.2101ZM25.32 22.0523H27.1054C27.5704 22.0523 27.9474 22.4294 27.9474 22.8946C27.9474 23.3595 27.5703 23.7366 27.1054 23.7366H25.421C24.9561 23.7366 24.579 23.3595 24.579 22.8946C24.579 22.4294 24.9561 22.0523 25.421 22.0523H25.32ZM25.32 27.1048L27.1054 27.1051C27.5704 27.1051 27.9474 27.4819 27.9474 27.9471C27.9474 28.4121 27.5703 28.7892 27.1054 28.7892H25.421C24.9561 28.7892 24.579 28.412 24.579 27.9471C24.579 27.4819 24.9561 27.1051 25.421 27.1051L25.32 27.1048ZM25.32 32.1573L27.1054 32.1576C27.5704 32.1576 27.9474 32.5345 27.9474 32.9997C27.9474 33.4649 27.5703 33.8417 27.1054 33.8417H25.421C24.9561 33.8417 24.579 33.4649 24.579 32.9997C24.579 32.5345 24.9561 32.1576 25.421 32.1576L25.32 32.1573ZM25.32 37.2099L27.1054 37.2102C27.5704 37.2102 27.9474 37.5873 27.9474 38.0522C27.9474 38.5174 27.5703 38.8942 27.1054 38.8942H25.421C24.9561 38.8942 24.579 38.5174 24.579 38.0522C24.579 37.5873 24.9561 37.2102 25.421 37.2102L25.32 37.2099ZM29.6316 47.3151V43.9472H27.9475V47.3157H26.2635L26.2632 43.0544C26.2902 42.6091 26.6594 42.262 27.1055 42.2629H30.474H30.4737C30.6972 42.2629 30.9113 42.3516 31.0693 42.5096C31.2274 42.6676 31.3161 42.8817 31.3161 43.1049V47.3154L29.6316 47.3151Z" fill="white"/>
</svg>
