<svg width="66" height="66" viewBox="0 0 66 66" fill="none" xmlns="http://www.w3.org/2000/svg">
<rect width="66" height="66" rx="16" fill="#F75590"/>
<path fill-rule="evenodd" clip-rule="evenodd" d="M33 52C43.4934 52 52 43.4934 52 33C52 22.5066 43.4934 14 33 14C22.5066 14 14 22.5066 14 33C14 43.4934 22.5066 52 33 52ZM31.6508 35.2275L35.5875 43L37.0784 42.2637L33.4184 35.0374C34.8475 34.5915 35.9459 33.4051 36.2492 31.9365H38V30.2911H36.2492C36.1242 29.683 35.8624 29.1244 35.4983 28.6455H38V27H28.0001V28.6455H32.1668C33.2526 28.6455 34.1801 29.3334 34.5242 30.2911H28V31.9365H34.5242C34.1801 32.8941 33.2526 33.582 32.1668 33.582H28.0001V35.2275H31.6508Z" fill="white"/>
</svg>
