<svg width="16" height="19" viewBox="0 0 16 19" fill="none" xmlns="http://www.w3.org/2000/svg">
<path d="M13.4187 11.906C11.9457 10.9099 8.71954 10.8315 7.7646 10.8315C6.80966 10.8315 3.58347 10.9112 2.11053 11.906C0.23912 13.1797 0.0398886 17.2413 4.21898e-05 18.0382C-0.00228957 18.2863 0.0921137 18.5254 0.263218 18.705C0.434322 18.8846 0.668661 18.9904 0.916509 19.0001H14.5742C14.6951 19.0021 14.8152 18.9798 14.9273 18.9345C15.0394 18.8891 15.1413 18.8217 15.2268 18.7362C15.3123 18.6507 15.3798 18.5488 15.4251 18.4367C15.4704 18.3246 15.4927 18.2045 15.4907 18.0836V17.9242C15.4495 16.9239 15.2104 13.1413 13.4187 11.906Z" fill="#787FF6"/>
<path d="M7.76554 9.39826C10.3608 9.39826 12.4647 7.29439 12.4647 4.69913C12.4647 2.10387 10.3608 0 7.76554 0C5.17028 0 3.06641 2.10387 3.06641 4.69913C3.06641 7.29439 5.17028 9.39826 7.76554 9.39826Z" fill="#787FF6"/>
</svg>
