<svg width="166" height="40" viewBox="0 0 166 40" fill="none" xmlns="http://www.w3.org/2000/svg">
<path d="M63.2083 24.147H53.9613L52.2333 29.963H50.8223L56.7613 9.89697H60.4183L66.3493 29.966H64.9383L63.2083 24.147ZM59.3503 11.19H57.8503L54.3373 22.79H62.8313L59.3503 11.19Z" fill="#02111B"/>
<path d="M65.5117 35.149C66.3811 34.6946 67.2054 34.1589 67.9738 33.549C68.4634 33.1516 68.8365 32.6291 69.0537 32.037C69.271 31.2905 69.3682 30.5141 69.3417 29.737V15.567H70.7238V29.767C70.7531 30.7179 70.6216 31.667 70.3347 32.574C70.0579 33.3191 69.5915 33.9791 68.9818 34.489C68.0984 35.2 67.1372 35.8086 66.1168 36.303L65.5117 35.149ZM69.3408 9.81104H70.7227V11.711H69.3408V9.81104Z" fill="#02111B"/>
<path d="M75.127 15.5689H76.538V16.6629C77.346 16.2096 78.2063 15.8567 79.0999 15.6119C79.9001 15.4094 80.7225 15.3086 81.5479 15.3119C82.5357 15.2532 83.5197 15.478 84.3839 15.9599C85.1029 16.4771 85.5972 17.2494 85.7659 18.1189C86.0657 19.5429 86.196 20.9973 86.1539 22.4519V29.9669H84.7719V22.4809C84.8021 21.2847 84.7107 20.0886 84.499 18.9109C84.3928 18.2224 84.0518 17.5918 83.5339 17.1259C82.9328 16.7205 82.2132 16.528 81.4899 16.5789C80.6735 16.5827 79.8608 16.6893 79.0709 16.8959C78.4235 17.0426 77.7956 17.2648 77.2 17.5579L76.567 17.8749V29.9679H75.127V15.5689Z" fill="#02111B"/>
<path d="M90.4885 29.1321C89.7798 28.2676 89.425 27.1667 89.4955 26.0511C89.4159 24.9586 89.7673 23.8785 90.4745 23.0421C91.3424 22.2674 92.4504 21.8151 93.6125 21.7611L98.7665 21.243V19.8611C98.8386 18.982 98.588 18.1067 98.0615 17.3991C97.8155 17.1324 97.5138 16.9232 97.1778 16.7863C96.8418 16.6495 96.4798 16.5883 96.1175 16.6071C95.2728 16.6071 94.4858 16.6357 93.7565 16.6931C93.0272 16.7504 91.8848 16.8654 90.3295 17.0381L90.2435 15.8571C92.0671 15.5166 93.9165 15.3336 95.7715 15.3101C96.3732 15.2581 96.9791 15.3283 97.5531 15.5163C98.127 15.7043 98.6571 16.0062 99.1115 16.4041C99.9026 17.3733 100.285 18.6127 100.176 19.859V27.832C100.195 27.9971 100.255 28.1548 100.35 28.2906C100.446 28.4264 100.574 28.5359 100.723 28.609C101.168 28.8516 101.659 28.9988 102.163 29.041L102.106 30.2211C101.472 30.231 100.843 30.1235 100.249 29.9041C99.7492 29.7266 99.3067 29.4182 98.9675 29.0111C97.2126 29.8065 95.3083 30.2187 93.3815 30.22C92.8494 30.2574 92.3155 30.1795 91.8163 29.9918C91.317 29.804 90.8641 29.5108 90.4885 29.1321ZM97.9885 28.182L98.7665 27.923V22.423L93.7855 22.9121C93.3948 22.8773 93.0013 22.9317 92.6346 23.0711C92.268 23.2105 91.9377 23.4313 91.6688 23.7169C91.3999 24.0025 91.1993 24.3453 91.0821 24.7197C90.965 25.0941 90.9343 25.4901 90.9925 25.8781C90.9925 27.9514 91.8275 28.988 93.4975 28.988C95.0303 28.9813 96.5503 28.7079 97.9895 28.1801L97.9885 28.182Z" fill="#02111B"/>
<path d="M104.842 29.6201L103.806 29.4201L104.206 26.3391C106.16 26.6332 108.13 26.8062 110.106 26.8571C112.141 26.8571 113.158 26.0124 113.158 24.3231C113.176 24.0193 113.111 23.7162 112.969 23.4471C112.827 23.1779 112.613 22.953 112.352 22.7971C111.494 22.3442 110.586 21.9961 109.645 21.7601C108.394 21.4449 107.19 20.9707 106.06 20.3491C105.273 19.9159 104.617 19.2795 104.16 18.5061C103.741 17.6877 103.538 16.7759 103.57 15.8571C103.513 15.0466 103.641 14.2336 103.945 13.4802C104.25 12.7268 104.722 12.0527 105.326 11.5091C106.742 10.4521 108.486 9.93194 110.25 10.0411C111.106 10.0431 111.962 10.0958 112.812 10.1991C113.695 10.3044 114.99 10.5108 116.699 10.8181L116.382 13.9571C114.481 13.7051 112.569 13.5512 110.652 13.4961C108.559 13.4961 107.513 14.1871 107.514 15.5691C107.508 15.7919 107.551 16.0132 107.64 16.2173C107.73 16.4213 107.864 16.6029 108.032 16.7491C108.416 17.0792 108.856 17.3376 109.332 17.5121C109.851 17.7121 110.724 18.0048 111.952 18.3901C113.029 18.704 114.064 19.1486 115.033 19.7141C115.714 20.122 116.263 20.7164 116.617 21.4271C116.973 22.2585 117.14 23.1584 117.107 24.0621C117.162 24.9218 117.027 25.783 116.711 26.5844C116.395 27.3857 115.906 28.1075 115.279 28.6981C113.891 29.8312 112.13 30.4059 110.341 30.3101C108.489 30.2677 106.647 30.0365 104.842 29.6201Z" fill="#02111B"/>
<path d="M121.729 29.5632C120.981 28.9934 120.457 28.1797 120.246 27.2632C119.922 25.9059 119.777 24.5122 119.814 23.1172V15.5732H123.672V23.1732C123.654 23.9486 123.702 24.7241 123.816 25.4912C123.838 25.6992 123.902 25.9006 124.003 26.0835C124.105 26.2665 124.242 26.4272 124.406 26.5562C124.823 26.7861 125.298 26.8903 125.773 26.8563C126.176 26.8607 126.578 26.8221 126.973 26.7412C127.328 26.6646 127.822 26.5312 128.456 26.3412V15.5732H132.314V29.9733H128.484V29.1672C127.832 29.5421 127.142 29.8462 126.425 30.0743C125.84 30.24 125.234 30.3225 124.625 30.3193C123.605 30.3747 122.592 30.1104 121.729 29.5632Z" fill="#02111B"/>
<path d="M135.88 9.83984H139.738V13.7268H135.88V9.83984ZM135.88 15.5698H139.738V29.9698H135.88V15.5698Z" fill="#02111B"/>
<path d="M145.295 29.7928C144.654 29.4144 144.181 28.8068 143.971 28.0929C143.667 27.0364 143.532 25.9385 143.571 24.8398V18.8509H141.871V15.5688H143.571V11.5688H147.429V15.5688H150.971V18.8509H147.429V24.7509C147.401 25.3007 147.468 25.8512 147.629 26.3778C147.762 26.7112 148.098 26.8695 148.637 26.8528L150.825 26.7949L150.997 29.8759C150.23 30.0485 149.63 30.1635 149.197 30.2209C148.763 30.2785 148.325 30.3072 147.887 30.3069C146.994 30.3554 146.102 30.1786 145.295 29.7928Z" fill="#02111B"/>
<path d="M154.25 28.6129C153.25 27.4796 152.75 25.6462 152.75 23.1129C152.75 20.4636 153.273 18.4866 154.319 17.1819C154.925 16.4991 155.681 15.9668 156.528 15.6269C157.375 15.2871 158.289 15.1491 159.199 15.2239C160.04 15.1631 160.884 15.2762 161.679 15.5561C162.474 15.8361 163.203 16.2768 163.82 16.8509C164.961 18.2096 165.525 19.9616 165.389 21.7309L165.101 24.4079H156.636C156.64 24.9419 156.763 25.4684 156.996 25.9489C157.213 26.316 157.564 26.5843 157.975 26.6969C158.59 26.8613 159.225 26.934 159.861 26.9129C160.494 26.9129 161.253 26.8939 162.136 26.8559C163.019 26.8179 163.662 26.7796 164.065 26.7409L164.871 26.6549L164.928 29.5059C163.029 30.0069 161.076 30.2775 159.112 30.3119C156.869 30.3119 155.249 29.7456 154.25 28.6129ZM161.592 21.4719C161.669 20.6359 161.483 19.7966 161.059 19.0719C160.817 18.8226 160.521 18.632 160.194 18.5147C159.868 18.3973 159.518 18.3563 159.173 18.3949C158.815 18.3579 158.453 18.4021 158.114 18.5241C157.775 18.6462 157.467 18.843 157.215 19.0999C156.765 19.8066 156.555 20.6393 156.615 21.4749L161.592 21.4719Z" fill="#02111B"/>
<path d="M37.2968 27.2949H26.8818L32.0398 35.8089C32.8908 36.9481 33.9771 37.8908 35.2248 38.5729C36.4917 39.3269 37.9989 39.568 39.4378 39.2469C40.7952 38.7449 41.9327 37.7814 42.6514 36.5251C43.37 35.2689 43.6239 33.8 43.3687 32.3754C43.1135 30.9509 42.3654 29.6614 41.2554 28.7328C40.1453 27.8042 38.7441 27.2955 37.2968 27.2959V27.2949Z" fill="#02111B"/>
<path d="M33.8525 39.6349C32.6378 38.8752 31.5761 37.8947 30.7225 36.744L30.6785 36.678L24.9935 27.2939H6.1705C4.53398 27.2939 2.96447 27.9441 1.80728 29.1013C0.650088 30.2585 0 31.828 0 33.4645C0 35.101 0.650088 36.6705 1.80728 37.8277C2.96447 38.9849 4.53398 39.6349 6.1705 39.6349H15.2525C15.2525 37.9157 15.9355 36.2669 17.1512 35.0511C18.3669 33.8354 20.0157 33.1525 21.735 33.1525C23.4543 33.1525 25.1031 33.8354 26.3188 35.0511C27.5345 36.2669 28.2175 37.9157 28.2175 39.6349H33.8525Z" fill="#02111B"/>
<path d="M42.7669 30.3601L38.3009 22.4531C37.5597 22.8717 36.7434 23.1403 35.8984 23.2434C35.0534 23.3466 34.1963 23.2823 33.3762 23.0543C32.5561 22.8262 31.789 22.4388 31.1185 21.9143C30.4481 21.3897 29.8875 20.7383 29.4689 19.9971C29.0502 19.2559 28.7817 18.4395 28.6785 17.5945C28.5754 16.7496 28.6397 15.8925 28.8677 15.0724C29.0958 14.2523 29.4831 13.4851 30.0077 12.8147C30.5322 12.1443 31.1837 11.5837 31.9249 11.1651L29.3709 6.64209C29.2391 7.80447 28.8883 8.93133 28.3369 9.96307L22.7969 20.0991L26.5969 26.8201L32.0429 35.8101C32.8928 36.9495 33.978 37.8925 35.2249 38.5751C36.3841 39.2558 37.74 39.523 39.0709 39.3331C39.9708 39.0804 40.8016 38.6264 41.5002 38.0053C42.1989 37.3843 42.7472 36.6126 43.1036 35.7484C43.4601 34.8843 43.6153 33.9504 43.5577 33.0174C43.5 32.0844 43.231 31.1768 42.7709 30.3631L42.7669 30.3601Z" fill="#02111B"/>
<path d="M24.8263 0.758966C23.3482 -0.0198328 21.6256 -0.194449 20.0213 0.271906C18.417 0.738261 17.0565 1.80917 16.2263 3.25897L11.7603 11.166C12.5015 11.5846 13.153 12.1452 13.6776 12.8156C14.2023 13.4861 14.5897 14.2533 14.8178 15.0735C15.0459 15.8937 15.1102 16.7507 15.0071 17.5958C14.904 18.4408 14.6354 19.2572 14.2168 19.9985C13.7981 20.7397 13.2376 21.3912 12.5671 21.9159C11.8967 22.4405 11.1294 22.8279 10.3093 23.056C9.48909 23.2841 8.63202 23.3484 7.78699 23.2453C6.94195 23.1422 6.12552 22.8736 5.38428 22.455L3.15527 26.402C4.20508 25.9183 5.34452 25.6597 6.50027 25.643L17.7283 25.693L26.9703 9.32897C27.8083 7.90474 28.0531 6.20828 27.652 4.60522C27.251 3.00216 26.2362 1.62084 24.8263 0.758966Z" fill="#02111B"/>
</svg>
