<svg width="25" height="24" viewBox="0 0 25 24" fill="none" xmlns="http://www.w3.org/2000/svg">
<path d="M24.0308 7.97103L13.0748 0.146032C12.9422 0.051678 12.7835 0.000976563 12.6208 0.000976562C12.4581 0.000976562 12.2994 0.051678 12.1668 0.146032L1.21181 7.97103C1.11062 8.04304 1.02801 8.13809 0.970807 8.24833C0.913601 8.35857 0.883439 8.48084 0.882812 8.60503V22.696C0.882812 22.9037 0.965307 23.1029 1.11215 23.2497C1.25899 23.3965 1.45815 23.479 1.66581 23.479H8.70881C8.91648 23.479 9.11564 23.3965 9.26248 23.2497C9.40932 23.1029 9.49181 22.9037 9.49181 22.696V17.213C9.49181 16.802 9.57277 16.395 9.73007 16.0152C9.88737 15.6355 10.1179 15.2904 10.4086 14.9998C10.6992 14.7091 11.0443 14.4786 11.424 14.3213C11.8038 14.164 12.2108 14.083 12.6218 14.083C13.0329 14.083 13.4399 14.164 13.8196 14.3213C14.1994 14.4786 14.5444 14.7091 14.8351 14.9998C15.1257 15.2904 15.3563 15.6355 15.5136 16.0152C15.6709 16.395 15.7518 16.802 15.7518 17.213V22.696C15.7518 22.9037 15.8343 23.1029 15.9811 23.2497C16.128 23.3965 16.3271 23.479 16.5348 23.479H23.5778C23.7855 23.479 23.9846 23.3965 24.1315 23.2497C24.2783 23.1029 24.3608 22.9037 24.3608 22.696V8.60503C24.3602 8.48084 24.33 8.35857 24.2728 8.24833C24.2156 8.13809 24.133 8.04304 24.0318 7.97103H24.0308Z" fill="black" fill-opacity="0.2"/>
</svg>
