<svg width="29" height="30" viewBox="0 0 29 30" fill="none" xmlns="http://www.w3.org/2000/svg">
<path opacity="0.5" d="M28.3331 26.684L22.9961 21.347C25.1229 18.9626 26.2668 15.8608 26.1974 12.6665C26.1279 9.4722 24.8502 6.42298 22.6218 4.13337C20.3934 1.84376 17.3799 0.483965 14.1886 0.328046C10.9974 0.172127 7.86569 1.23167 5.42466 3.29314C2.98363 5.35461 1.41477 8.26475 1.03425 11.437C0.653731 14.6093 1.48985 17.808 3.37409 20.3882C5.25834 22.9685 8.05062 24.7387 11.1882 25.3419C14.3258 25.9451 17.5754 25.3366 20.2821 23.639L25.8301 29.187C25.9924 29.3495 26.1851 29.4785 26.3973 29.5665C26.6094 29.6545 26.8369 29.6998 27.0666 29.6998C27.2963 29.6998 27.5237 29.6545 27.7359 29.5665C27.9481 29.4785 28.1408 29.3495 28.3031 29.187C28.4732 29.0268 28.6092 28.834 28.7032 28.62C28.7971 28.4061 28.8469 28.1754 28.8497 27.9418C28.8525 27.7082 28.8082 27.4764 28.7195 27.2603C28.6307 27.0442 28.4993 26.8482 28.3331 26.684ZM4.48109 12.9339C4.48406 11.137 5.01943 9.38123 6.01962 7.88836C7.0198 6.39549 8.43992 5.23247 10.1007 4.54618C11.7614 3.85989 13.5882 3.6811 15.3505 4.03239C17.1128 4.38369 18.7315 5.24931 20.0021 6.51995C21.2727 7.79058 22.1383 9.40924 22.4896 11.1715C22.8409 12.9338 22.6622 14.7607 21.9759 16.4214C21.2896 18.0821 20.1265 19.5022 18.6337 20.5024C17.1408 21.5026 15.385 22.038 13.5881 22.0409C11.1737 22.038 8.85894 21.0776 7.15168 19.3704C5.44442 17.6631 4.484 15.3484 4.48109 12.9339Z" fill="#02111B"/>
</svg>
