<svg width="21" height="21" viewBox="0 0 21 21" fill="none" xmlns="http://www.w3.org/2000/svg">
<path opacity="0.1" d="M20.4475 19.8947H18.7895V4.97373C18.8064 4.7249 18.6513 4.49689 18.4136 4.42115L14.3684 2.73005V19.8947H13.2632V0.552591C13.2632 0.406104 13.205 0.265598 13.1013 0.161901C12.9978 0.058204 12.8571 0 12.7106 0H2.76317C2.45806 0 2.21059 0.24748 2.21059 0.552581V19.8946H0.552585C0.247472 19.8946 0 20.1421 0 20.4474C0 20.7525 0.247482 21 0.552585 21H20.4474C20.7525 21 21 20.7525 21 20.4474C21 20.1421 20.7525 19.8946 20.4474 19.8946L20.4475 19.8947ZM16.0263 6.63162H17.1315V6.63182C17.2782 6.63182 17.4187 6.69002 17.5224 6.79352C17.6261 6.89722 17.6843 7.03773 17.6843 7.18441C17.6783 7.4872 17.4343 7.73102 17.1315 7.73699H16.0263C15.7235 7.73101 15.4795 7.48719 15.4737 7.18441C15.4737 6.8791 15.721 6.63182 16.0263 6.63182L16.0263 6.63162ZM16.0263 9.94736H17.1315V9.94755C17.4368 9.94755 17.6843 10.1948 17.6843 10.5001C17.6843 10.8054 17.4368 11.0527 17.1315 11.0527H16.0263C15.721 11.0527 15.4737 10.8054 15.4737 10.5001C15.4737 10.1948 15.721 9.94755 16.0263 9.94755V9.94736ZM16.0263 13.2631H17.1315V13.2633C17.4343 13.2693 17.6783 13.5131 17.6843 13.8159C17.6843 13.9625 17.6261 14.103 17.5224 14.2067C17.4187 14.3102 17.2782 14.3685 17.1315 14.3685H16.0263C15.721 14.3685 15.4737 14.1212 15.4737 13.8159C15.4795 13.5131 15.7235 13.2693 16.0263 13.2633L16.0263 13.2631ZM16.0263 16.5788H17.1315V16.579C17.4368 16.579 17.6843 16.8265 17.6843 17.1316C17.6843 17.4369 17.4368 17.6844 17.1315 17.6844H16.0263C15.721 17.6844 15.4737 17.4369 15.4737 17.1316C15.4737 16.8265 15.721 16.579 16.0263 16.579V16.5788ZM8.84207 3.31569H9.94743C10.2525 3.31569 10.5 3.56317 10.5 3.86847C10.5 4.17358 10.2525 4.42105 9.94743 4.42105H8.84207C8.53695 4.42105 8.28948 4.17357 8.28948 3.86847C8.28948 3.56317 8.53696 3.31569 8.84207 3.31569ZM8.84207 6.63142H9.94724L9.94743 6.63162C10.2525 6.63162 10.5 6.8789 10.5 7.1842C10.5 7.48931 10.2525 7.73678 9.94743 7.73678H8.84206C8.53695 7.73678 8.28948 7.4893 8.28948 7.1842C8.28948 6.87889 8.53696 6.63162 8.84206 6.63162L8.84207 6.63142ZM8.84207 9.94716H9.94724L9.94743 9.94735C10.2525 9.94735 10.5 10.1946 10.5 10.4999C10.5 10.8052 10.2525 11.0525 9.94743 11.0525H8.84206C8.53695 11.0525 8.28948 10.8052 8.28948 10.4999C8.28948 10.1946 8.53696 9.94735 8.84206 9.94735L8.84207 9.94716ZM8.84207 13.2629H9.94724L9.94743 13.2631C10.2525 13.2631 10.5 13.5106 10.5 13.8157C10.5 14.121 10.2525 14.3682 9.94743 14.3682H8.84206C8.53695 14.3682 8.28948 14.121 8.28948 13.8157C8.28948 13.5106 8.53696 13.2631 8.84206 13.2631L8.84207 13.2629ZM5.46 3.31554H6.63168C6.93679 3.31554 7.18426 3.56302 7.18426 3.86832C7.18426 4.17343 6.93678 4.4209 6.63168 4.4209H5.52631C5.2212 4.4209 4.97373 4.17342 4.97373 3.86832C4.97373 3.56302 5.22121 3.31554 5.52631 3.31554H5.46ZM5.46 6.63128L6.63168 6.63147C6.93679 6.63147 7.18426 6.87876 7.18426 7.18405C7.18426 7.48916 6.93678 7.73663 6.63168 7.73663H5.52631C5.2212 7.73663 4.97373 7.48915 4.97373 7.18405C4.97373 6.87875 5.22121 6.63147 5.52631 6.63147L5.46 6.63128ZM5.46 9.94701L6.63168 9.9472C6.93679 9.9472 7.18426 10.1945 7.18426 10.4998C7.18426 10.8051 6.93678 11.0524 6.63168 11.0524H5.52631C5.2212 11.0524 4.97373 10.8051 4.97373 10.4998C4.97373 10.1945 5.22121 9.9472 5.52631 9.9472L5.46 9.94701ZM5.46 13.2627L6.63168 13.2629C6.93679 13.2629 7.18426 13.5104 7.18426 13.8155C7.18426 14.1208 6.93678 14.3681 6.63168 14.3681H5.52631C5.2212 14.3681 4.97373 14.1208 4.97373 13.8155C4.97373 13.5104 5.22121 13.2629 5.52631 13.2629L5.46 13.2627ZM8.28948 19.8943V17.6841H7.18431V19.8947H6.07914L6.07895 17.0982C6.09668 16.806 6.33896 16.5782 6.63173 16.5788H8.84232H8.84213C8.98881 16.5788 9.12931 16.637 9.23301 16.7407C9.33671 16.8444 9.39491 16.9849 9.39491 17.1314V19.8945L8.28948 19.8943Z" fill="black"/>
</svg>
