<svg width="24" height="17" viewBox="0 0 24 17" fill="none" xmlns="http://www.w3.org/2000/svg">
<path fill-rule="evenodd" clip-rule="evenodd" d="M8.289 8.16651H8.19367C4.15002 8.19269 0.836036 11.5411 0.62749 15.7617L0.627685 15.7615C0.619675 15.9213 0.677696 16.0774 0.78807 16.1932C0.898445 16.3091 1.05141 16.3745 1.2114 16.3745H15.2785C15.4372 16.3728 15.5884 16.3063 15.6972 16.1907C15.8058 16.075 15.8626 15.9201 15.8546 15.7615C15.6466 11.5408 12.3323 8.19282 8.28845 8.16632L8.289 8.16651ZM12.4856 8.13955C13.5941 8.7895 14.5535 9.66509 15.3017 10.7095C16.0499 11.7541 16.5703 12.9442 16.829 14.2026H23.4159C23.5759 14.2026 23.7289 14.1372 23.8393 14.0214C23.9497 13.9055 24.0077 13.7494 23.9997 13.5896C23.8051 9.64305 20.6935 6.51555 16.9066 6.51555C15.2875 6.51809 13.7213 7.09323 12.4855 8.13936L12.4856 8.13955ZM8.24174 0.54287C7.30913 0.54287 6.41458 0.913262 5.75504 1.5728C5.09569 2.23234 4.72511 3.12664 4.72511 4.0593C4.72511 4.99191 5.0957 5.88645 5.75524 6.546C6.41458 7.20555 7.30908 7.57593 8.24174 7.57593C9.17434 7.57593 10.0689 7.20534 10.7282 6.546C11.3878 5.88645 11.7584 4.99196 11.7584 4.0593C11.7578 3.12684 11.3872 2.23254 10.7279 1.5732C10.0686 0.913853 9.17424 0.54327 8.24179 0.54287H8.24174ZM16.9067 0C16.1756 0 15.4747 0.290299 14.9578 0.807229C14.4409 1.32414 14.1503 2.02525 14.1503 2.75631C14.1503 3.48732 14.4408 4.18848 14.9578 4.70519C15.4747 5.22211 16.1756 5.51262 16.9067 5.51262C17.6377 5.51262 18.3388 5.22213 18.8557 4.70519C19.3727 4.18848 19.663 3.48732 19.663 2.75631C19.6626 2.0255 19.3721 1.32454 18.8552 0.807829C18.3385 0.290915 17.6377 0.000400443 16.9067 5.03652e-05L16.9067 0Z" fill="#787FF6"/>
</svg>
