<svg width="26" height="34" viewBox="0 0 26 34" fill="none" xmlns="http://www.w3.org/2000/svg">
<path d="M24.2202 12.7359H14.7102L15.5748 2.22475C15.6024 1.82958 15.457 1.44172 15.1765 1.16209C14.8956 0.882463 14.5074 0.738684 14.1122 0.767878C13.717 0.797079 13.3539 0.996725 13.1178 1.31476L0.240513 19.4704C0.0507101 19.7462 -0.0311875 20.0823 0.0107156 20.4143C0.0522954 20.7466 0.214804 21.0516 0.466825 21.2719C0.718845 21.4922 1.04323 21.6122 1.3781 21.609H11.1157L10.1146 32.3477C10.0873 32.6505 10.1622 32.9539 10.327 33.2094C10.492 33.4649 10.7374 33.6582 11.0246 33.7582L11.4798 33.8493C11.9422 33.8435 12.3704 33.6036 12.6173 33.2122L25.3581 14.8746H25.3578C25.5476 14.5988 25.6295 14.263 25.5876 13.9307C25.546 13.5987 25.3835 13.2933 25.1315 13.073C24.8795 12.8528 24.5551 12.7328 24.2202 12.736L24.2202 12.7359Z" fill="#787FF6"/>
</svg>
